# xmcd
#
# Track frame offsets: 
#        150
#        12513
#        21404
#        34611
#        44619
#        55955
#        69164
#        78808
#        91389
#        102539
#        114598
#        128428
#        140963
#        160254
#        171161
#
# Disc length: 2412 seconds
#
# Revision: 0
# Processed by: cddbd v1.5.2PL0 Copyright (c) Steve Scherf et al.
# Submitted via: ExactAudioCopy v0.95b3
#
DISCID=c9096a0f
DTITLE=Gene Vincent  - The Great Gene Vincent - 128K
DYEAR=1900
DGENRE=
TTITLE0=Be-Bop-A-Lula
TTITLE1=Say Mama
TTITLE2=Ain't That Too Much
TTITLE3=Lonely Street
TTITLE4=Poor Man's Prison
TTITLE5=I'm A Lonesome Fugitive
TTITLE6=Hi-Lili-Hi-Lo
TTITLE7=Bird Doggin'
TTITLE8=Hurtin' For You Baby
TTITLE9=Boppin' The Blues
TTITLE10=How I Love Them Old Songs
TTITLE11=You Can Make I If You Try
TTITLE12=Something On Your Mind
TTITLE13=Oh, Lonesome Me
TTITLE14=Lotta Lovin'
EXTD=
EXTT0=
EXTT1=
EXTT2=
EXTT3=
EXTT4=
EXTT5=
EXTT6=
EXTT7=
EXTT8=
EXTT9=
EXTT10=
EXTT11=
EXTT12=
EXTT13=
EXTT14=
PLAYORDER=
